<svg id="Ebene_1" data-name="Ebene 1" xmlns="http://www.w3.org/2000/svg" viewBox="0 0 500 500"><defs><style>.cls-1,.cls-2{fill:#fff;}.cls-2{font-size:92px;font-family:Raleway-Bold, Raleway;}.cls-3{font-weight:700;}.cls-4,.cls-5{font-family:Raleway-Regular, Raleway;}.cls-5{letter-spacing:-0.01em;}</style></defs><title>linux_logo_white</title><rect id="bg" width="500" height="500"/><rect class="cls-1" x="90" y="48.4" width="320" height="320" rx="40" ry="40"/><path class="cls-1" d="M90,125.6H48.6A18.6,18.6,0,0,1,30,107h0A18.6,18.6,0,0,1,48.6,88.4H90Z"/><path class="cls-1" d="M90,193.27H48.6A18.6,18.6,0,0,1,30,174.67h0a18.6,18.6,0,0,1,18.6-18.6H90Z"/><path class="cls-1" d="M90,260.93H48.6A18.6,18.6,0,0,1,30,242.33h0a18.6,18.6,0,0,1,18.6-18.6H90Z"/><path class="cls-1" d="M90,328.6H48.6A18.6,18.6,0,0,1,30,310h0a18.6,18.6,0,0,1,18.6-18.6H90Z"/><path class="cls-1" d="M410,125.6h41.4A18.6,18.6,0,0,0,470,107h0a18.6,18.6,0,0,0-18.6-18.6H410Z"/><path class="cls-1" d="M410,193.27h41.4a18.6,18.6,0,0,0,18.6-18.6h0a18.6,18.6,0,0,0-18.6-18.6H410Z"/><path class="cls-1" d="M410,260.93h41.4a18.6,18.6,0,0,0,18.6-18.6h0a18.6,18.6,0,0,0-18.6-18.6H410Z"/><path class="cls-1" d="M410,328.6h41.4A18.6,18.6,0,0,0,470,310h0a18.6,18.6,0,0,0-18.6-18.6H410Z"/><path d="M282,186c36.13-61,98.1-82.8,98.1-82.8-56.44-3.94-95.1,16.94-109.57,25.7s-26,4.26-26,4.26C149.39,110.62,117.8,173.78,110,195.1V328.4a20,20,0,0,0,20,20H242.43A283.28,283.28,0,0,1,282,186Z"/><circle class="cls-1" cx="211.35" cy="164.1" r="8.59"/><path d="M319.84,348.72c11.74-.22,25.14-2,33.29-11.4,14.55-16.82,5.84-50.92-17.65-54.14,5.86-12.53.88-28.81-11.1-35.8-7.35-4.29-23.09-7.46-23.62,5.14l-2.67,84.21H272.72s-2.52-20.94-1.61-35c1.13-17.47,2.32-28.06,4.49-42.08,1.62-10.53,11.87-42.06,16.34-57.14.69-2.32-1.24-3.55-3.14.21a282.38,282.38,0,0,0-30.37,145.7m51.09-11.26,2.76-81.68c7.08-1.1,11.79,6.3,13.34,12.22A23.34,23.34,0,0,1,319.47,290c17.48-2.33,31.1,15.3,28.87,30.63C345.59,339.58,323.49,336.64,309.51,337.14Z"/><text class="cls-2" transform="translate(30.19 465.56)"><tspan class="cls-3">Linux</tspan><tspan class="cls-4" x="238.46" y="0">Bo</tspan><tspan class="cls-5" x="354.47" y="0">o</tspan><tspan class="cls-4" x="408.56" y="0">t</tspan></text></svg>