<svg id="Ebene_1" data-name="Ebene 1" xmlns="http://www.w3.org/2000/svg" viewBox="0 0 500 500"><defs><style>.cls-1{fill:#fff;}.cls-2{font-size:92px;font-family:Raleway-Bold, Raleway;}.cls-3{font-weight:700;}.cls-4,.cls-5{font-family:Raleway-Regular, Raleway;}.cls-5{letter-spacing:-0.01em;}</style></defs><title>linux_logo_black</title><rect x="90" y="50" width="320" height="320" rx="40" ry="40"/><path d="M90,127.2H48.6A18.6,18.6,0,0,1,30,108.6h0A18.6,18.6,0,0,1,48.6,90H90Z"/><path d="M90,194.86H48.6A18.6,18.6,0,0,1,30,176.26h0a18.6,18.6,0,0,1,18.6-18.6H90Z"/><path d="M90,262.53H48.6A18.6,18.6,0,0,1,30,243.93h0a18.6,18.6,0,0,1,18.6-18.6H90Z"/><path d="M90,330.2H48.6A18.6,18.6,0,0,1,30,311.6h0A18.6,18.6,0,0,1,48.6,293H90Z"/><path d="M410,127.2h41.4A18.6,18.6,0,0,0,470,108.6h0A18.6,18.6,0,0,0,451.42,90H410Z"/><path d="M410,194.86h41.4a18.6,18.6,0,0,0,18.6-18.6h0a18.6,18.6,0,0,0-18.6-18.6H410Z"/><path d="M410,262.53h41.4a18.6,18.6,0,0,0,18.6-18.6h0a18.6,18.6,0,0,0-18.6-18.6H410Z"/><path d="M410,330.2h41.4A18.6,18.6,0,0,0,470,311.6h0a18.6,18.6,0,0,0-18.6-18.6H410Z"/><path class="cls-1" d="M282,187.63c36.13-61,98.1-82.8,98.1-82.8-56.44-3.94-95.1,16.94-109.57,25.7s-26,4.26-26,4.26C149.39,112.21,117.8,175.38,110,196.7V330a20,20,0,0,0,20,20H242.43A283.28,283.28,0,0,1,282,187.63Z"/><circle cx="211.35" cy="165.7" r="8.59"/><path class="cls-1" d="M297.94,350l.61-11.68H272.72s-2.52-20.94-1.61-35c1.13-17.47,2.32-28.06,4.49-42.08,1.62-10.53,11.87-42.06,16.34-57.14.69-2.32-1.24-3.55-3.14.21A282.38,282.38,0,0,0,258.43,350"/><path class="cls-1" d="M297.73,350c0,.49,20.21.32,22.11.29,11.74-.22,25.14-2,33.29-11.4C367.69,322.1,359,288,335.49,284.78c5.86-12.53.88-28.81-11.1-35.8-7.35-4.29-23.09-7.46-23.62,5.14m11.49,2.93c7.08-1.1,11.79,6.3,13.34,12.22a23.34,23.34,0,0,1-6.15,22.34c17.48-2.33,31.1,15.3,28.87,30.63-2.75,18.93-24.85,16-38.83,16.49"/><text class="cls-2" transform="translate(30.19 467.16)"><tspan class="cls-3">Linux</tspan><tspan class="cls-4" x="238.46" y="0">Bo</tspan><tspan class="cls-5" x="354.47" y="0">o</tspan><tspan class="cls-4" x="408.56" y="0">t</tspan></text></svg>